<svg xmlns="http://www.w3.org/2000/svg" width="57" height="57" viewBox="0 0 57 57"><g><g><g><path fill="#f4dbfd" d="M28.5 0C44.24 0 57 12.76 57 28.498c0 15.74-12.76 28.5-28.5 28.5S0 44.239 0 28.499s12.76-28.5 28.5-28.5z"/></g><g><path fill="#363636" d="M21 18a3 3 0 1 1 0 6 3 3 0 0 1 0-6z"/></g><g><path fill="#363636" d="M21 34a3 3 0 1 1 0 6 3 3 0 0 1 0-6z"/></g><g><path fill="#363636" d="M36 18a3 3 0 1 1 0 6 3 3 0 0 1 0-6z"/></g><g><path fill="#363636" d="M36 34a3 3 0 1 1 0 6 3 3 0 0 1 0-6z"/></g><g><path fill="#8b61b4" d="M21.592 19.286l15.803 17.495c.37.408.37 1.07 0 1.479l-.66.73a.882.882 0 0 1-1.335 0L19.597 21.495a1.126 1.126 0 0 1 0-1.478l.66-.73a.881.881 0 0 1 1.335 0z"/></g><g><path fill="#8b61b4" d="M19.607 36.535l15.472-17.101a.864.864 0 0 1 1.308 0l.646.714a1.099 1.099 0 0 1 0 1.445L21.56 38.694c-.361.4-.946.4-1.307 0l-.646-.714a1.1 1.1 0 0 1 0-1.445z"/></g></g></g></svg>