<svg xmlns="http://www.w3.org/2000/svg" viewBox="0 0 135 135"><defs><style>.cls-1{fill:#7d3daf;}.cls-2{fill:#fff;}</style></defs><g id="Шар_2" data-name="Шар 2"><g id="Graphic_Elements" data-name="Graphic Elements"><circle class="cls-1" cx="67.5" cy="67.5" r="67.5"/><path class="cls-2" d="M69.53,21.83A121.13,121.13,0,0,1,92,24c5.52,1.05,10,4.12,14,7.93s7.34,8.31,8.5,13.94A84.07,84.07,0,0,1,116,72.76c-.37,3.1-.83,6.19-1.31,9.27-1,6.38-4.6,11.27-9.12,15.54-3.69,3.48-7.84,6.38-12.91,7.37-4.36.85-8.8,1.34-13.23,1.83-2.83.32-5.69.43-8.54.49-2.21,0-4.42-.07-6.63-.19a2.9,2.9,0,0,0-2.52,1c-2.89,3.1-5.85,6.15-8.8,9.19-1.92,2-4.31,2.28-6.17.83a4.94,4.94,0,0,1-1.66-4.2c0-2.63,0-5.25,0-7.88,0-1-.35-1.39-1.26-1.78-9.17-3.88-16.09-10.16-19-19.82a61.41,61.41,0,0,1-2.1-14.27,100.43,100.43,0,0,1,.27-15c.5-5.57,1-11.23,4.21-16.12,4.64-7.18,10.63-12.81,19.16-14.82A113.21,113.21,0,0,1,60.3,22.3C63.36,22,66.45,22,69.53,21.83ZM48.87,105.58c0,2.49,0,5,0,7.47a7.79,7.79,0,0,0,.51,1.76c.53-.27,1.08-.53,1.59-.83a2.53,2.53,0,0,0,.49-.49c4.53-4.65,9.05-9.31,13.61-13.94a3.06,3.06,0,0,1,1.72-.93c5.23-.34,10.48-.48,15.7-.89a43.08,43.08,0,0,0,8.55-1.38c5.75-1.66,9.84-5.6,13.06-10.49,2.37-3.6,2.58-7.82,3.1-11.9a77.65,77.65,0,0,0-.78-24c-1.57-8.53-6.91-14.13-14.72-16.77-5-1.69-10.55-1.95-15.89-2.31a104.35,104.35,0,0,0-24.89,1.3c-8.68,1.49-14.54,6.61-17.58,14.61C32,50.3,31.69,54.38,31.5,58.25a139.39,139.39,0,0,0,.25,15.43,31.79,31.79,0,0,0,1.59,8.79c2.37,6.59,7.2,11,13.64,13.59,1.44.58,2,1.2,1.92,2.75C48.77,101.06,48.87,103.32,48.87,105.58Z"/><path class="cls-1" d="M48.87,105.58c0-2.26-.1-4.52,0-6.77.1-1.55-.48-2.17-1.92-2.75-6.44-2.58-11.27-7-13.64-13.59a31.79,31.79,0,0,1-1.59-8.79,139.39,139.39,0,0,1-.25-15.43c.19-3.87.51-8,1.86-11.51,3-8,8.9-13.12,17.58-14.61a104.35,104.35,0,0,1,24.89-1.3c5.34.36,10.9.62,15.89,2.31,7.81,2.64,13.15,8.24,14.72,16.77a77.65,77.65,0,0,1,.78,24c-.52,4.08-.73,8.3-3.1,11.9-3.22,4.89-7.31,8.83-13.06,10.49a43.08,43.08,0,0,1-8.55,1.38c-5.22.41-10.47.55-15.7.89a3.06,3.06,0,0,0-1.72.93c-4.56,4.63-9.08,9.29-13.61,13.94A2.53,2.53,0,0,1,51,114c-.51.3-1.06.56-1.59.83a7.79,7.79,0,0,1-.51-1.76C48.83,110.56,48.87,108.07,48.87,105.58ZM73.24,76.72c-.88-.25-1.56-.37-2.19-.62C64.71,73.64,60.69,69,58.37,62.71,57.76,61,58,60.2,59.35,59c.34-.3.72-.57,1.08-.86,1.93-1.58,2.51-3.49,1.19-5.6a100.94,100.94,0,0,0-6-8.38c-1.05-1.34-2.33-1.46-3.86-.74a13.35,13.35,0,0,0-5.6,4.77,5.47,5.47,0,0,0-.53,5.85c2,4.07,3.8,8.29,6.11,12.19C58.69,78,69.36,85.12,82,89.63a3.07,3.07,0,0,0,1.85,0c3.69-1.17,6-3.82,7.33-7.33a2.68,2.68,0,0,0-1-3.21c-2.85-2.17-5.75-4.29-8.75-6.24-1.59-1-3.28-.55-4.6.86a21.9,21.9,0,0,1-1.74,2A9.44,9.44,0,0,1,73.24,76.72ZM92.8,64.19h.07c-.12-.91-.24-1.82-.34-2.73-1.09-9.2-5.83-15.77-14.43-19.22-2.71-1.09-5.77-1.33-8.7-1.84a1.55,1.55,0,0,0-2,1.27c-.17,1.18.64,1.5,1.59,1.62,1.41.18,2.83.27,4.23.51A20.12,20.12,0,0,1,89.61,61.84a25.17,25.17,0,0,0,.54,4.08c.13.48,1,1.19,1.4,1.09.54-.16,1-.88,1.29-1.46C93,65.19,92.83,64.65,92.8,64.19ZM87,62.26a45.77,45.77,0,0,0-1.36-5.73c-2.33-6.38-8.38-9.76-14.68-10a2,2,0,0,0-1.48,1.21c-.08.44.61,1.14,1.11,1.53a3.12,3.12,0,0,0,1.47.3A12.72,12.72,0,0,1,83.65,60.06c.23,1.12.16,2.31.44,3.41a1.79,1.79,0,0,0,1.21,1.16c.46,0,1-.57,1.41-1C86.92,63.39,86.89,62.94,87,62.26ZM72.41,52.69c-.24.25-1.07.71-1.2,1.32-.23,1,.65,1.47,1.61,1.62,3.44.56,4.45,1.55,5.09,5,0,.27,0,.66.11.8.52.49,1.12.89,1.68,1.33.39-.55,1.1-1.07,1.14-1.64C81.14,56.67,77.38,52.73,72.41,52.69Z"/><path class="cls-2" d="M73.24,76.72a9.44,9.44,0,0,0,1.87-1,21.9,21.9,0,0,0,1.74-2c1.32-1.41,3-1.89,4.6-.86,3,2,5.9,4.07,8.75,6.24a2.68,2.68,0,0,1,1,3.21c-1.38,3.51-3.64,6.16-7.33,7.33a3.07,3.07,0,0,1-1.85,0C69.36,85.12,58.69,78,51.71,66.27c-2.31-3.9-4.07-8.12-6.11-12.19a5.47,5.47,0,0,1,.53-5.85,13.35,13.35,0,0,1,5.6-4.77c1.53-.72,2.81-.6,3.86.74a100.94,100.94,0,0,1,6,8.38c1.32,2.11.74,4-1.19,5.6-.36.29-.74.56-1.08.86-1.34,1.16-1.59,2-1,3.67C60.69,69,64.71,73.64,71.05,76.1,71.68,76.35,72.36,76.47,73.24,76.72Z"/><path class="cls-2" d="M92.8,64.19c0,.46.22,1,0,1.36-.29.58-.75,1.3-1.29,1.46-.35.1-1.27-.61-1.4-1.09a25.17,25.17,0,0,1-.54-4.08A20.12,20.12,0,0,0,73.24,43.79c-1.4-.24-2.82-.33-4.23-.51-1-.12-1.76-.44-1.59-1.62a1.55,1.55,0,0,1,2-1.27c2.93.51,6,.75,8.7,1.84,8.6,3.45,13.34,10,14.43,19.22.1.91.22,1.82.34,2.73Z"/><path class="cls-2" d="M87,62.26c-.15.68-.12,1.13-.33,1.37-.4.43-.95,1-1.41,1a1.79,1.79,0,0,1-1.21-1.16c-.28-1.1-.21-2.29-.44-3.41A12.72,12.72,0,0,0,72.1,49.54a3.12,3.12,0,0,1-1.47-.3c-.5-.39-1.19-1.09-1.11-1.53A2,2,0,0,1,71,46.5c6.3.27,12.35,3.65,14.68,10A45.77,45.77,0,0,1,87,62.26Z"/><path class="cls-2" d="M72.41,52.69c5,0,8.73,4,8.43,8.39,0,.57-.75,1.09-1.14,1.64-.56-.44-1.16-.84-1.68-1.33-.15-.14-.06-.53-.11-.8-.64-3.41-1.65-4.4-5.09-5-1-.15-1.84-.58-1.61-1.62C71.34,53.4,72.17,52.94,72.41,52.69Z"/></g></g></svg>