<?xml version="1.0" encoding="utf-8"?>
<!-- Generator: Adobe Illustrator 25.0.0, SVG Export Plug-In . SVG Version: 6.00 Build 0)  -->
<svg version="1.1" id="Шар_1" xmlns="http://www.w3.org/2000/svg" xmlns:xlink="http://www.w3.org/1999/xlink" x="0px" y="0px"
	 viewBox="0 0 943.2 796.8" style="enable-background:new 0 0 943.2 796.8;" xml:space="preserve">
<style type="text/css">
	.st0{fill:#C14692;}
	.st1{fill:#1D1D1B;}
</style>
<path class="st0" d="M778,663l-13.2,0.2c-1.3-2.8-2.6-5.5-3.7-8.4c-0.8-1.9-1.6-3.7-2.3-5.6l-2.2-5.6c-5.7-15-10.6-30.3-14.6-45.9
	c-3.8-15.6-6.7-31.4-8.5-47.3c-1.8-15.9-2.8-31.9-2.8-47.9c-0.3-32,2.5-63.6,4.7-95.1s4.2-62.8,3.2-94.1
	c-0.5-15.6-1.5-31.2-3.2-46.7c-0.4-3.9-1-7.7-1.5-11.6c-0.3-1.9-0.5-3.9-0.8-5.8l-0.9-5.8l-0.9-5.8c-0.3-1.9-0.6-3.9-1-5.8
	l-2.2-11.5c-0.3-1.9-0.8-3.8-1.2-5.7l-1.3-5.7c-0.9-3.8-1.7-7.6-2.7-11.4c-1.9-7.5-4.1-14.9-6.7-22.2c-5-14.6-11.2-28.8-18.5-42.5
	c-7.3-13.6-15.7-26.6-25.2-38.8c-2.3-3.1-4.9-6-7.4-8.9c-1.2-1.5-2.5-2.9-3.8-4.4l-4-4.2c-2.7-2.8-5.3-5.6-8.1-8.2s-5.7-5.2-8.5-7.8
	c-11.7-9.9-24.4-18.5-38.2-24c-3.4-1.3-6.9-2.4-10.5-3.3c-1.8-0.4-3.5-0.8-5.4-1.1l-2.8-0.4l-2.8-0.3c-7.5-0.7-15-0.7-22.4,0.1
	c-14.9,1.5-29.3,6.2-42.1,13.8c-6.3,3.8-11.9,8.6-16.9,14c-4.1,4.6-7.7,9.8-10.4,15.3l0.8,1l2.1,2.7c1.4,1.8,2.8,3.6,4.2,5.4
	c2.6,3.7,5.3,7.4,7.7,11.3c2,3,3.8,6.1,5.6,9.1c-2.8,0.5-5.6,1-8.4,1.7c-1.2-2.2-2.5-4.5-3.9-6.7c-2.2-3.8-4.7-7.4-7.2-11.1
	c-1.2-1.8-2.6-3.6-3.9-5.4l-0.4-0.5l-0.2,0.4l-0.5,1.3l-0.4,1.3l-0.8,2.6c-1,3.5-1.7,7.2-2.3,10.8c-0.7,4.6-1,9.2-1,13.8
	c-4.1,1.7-8.1,3.5-11.9,5.5c-0.3-7,0-14,1-21c0.6-4.2,1.5-8.3,2.6-12.3l0.9-3l0.5-1.5l0.5-1.5l1.1-3l1.3-2.9
	c0.2-0.4,0.4-0.8,0.5-1.2l-3.7-4.2c-5.9-6.5-12.3-12.7-19.1-18.3c-13.7-11.1-29-20.4-45.8-25.9s-34.8-7.2-52.2-3.8
	c-17.5,3.2-34,10.8-49,20.5c-15,9.9-28.7,21.6-40.8,34.8c11.8-13.6,25.2-25.7,40-36.1c14.8-10.2,31.4-18.4,49.2-22.2
	c8.9-2,18.1-2.7,27.2-2.2c9.1,0.5,18.2,2,26.9,4.7c17.6,5.2,33.8,14.3,48.2,25.5c7.2,5.6,14,11.8,20.3,18.4l2.1,2.3
	c2.8-4.9,6.1-9.5,9.9-13.7c5.7-6.3,12.3-11.7,19.5-16.1c14.4-8.6,30.5-13.9,47.2-15.6c8.3-0.9,16.6-0.9,24.9-0.1l3.1,0.4l3.1,0.5
	c2.1,0.3,4.2,0.7,6.2,1.2c4.1,1,8.1,2.3,12.1,3.8c15.6,6.2,29.3,15.5,41.7,26.1c3,2.7,6.1,5.3,9,8.2s5.7,5.7,8.5,8.6l4.2,4.4
	c1.3,1.5,2.6,3.1,4,4.6c2.6,3.1,5.3,6.1,7.7,9.3c10,12.7,18.8,26.3,26.4,40.5c7.6,14.2,14,29,19.3,44.3c2.6,7.6,4.9,15.4,6.9,23.1
	c1,3.9,1.9,7.8,2.8,11.7l1.3,5.8c0.5,1.9,0.9,3.9,1.2,5.9l2.3,11.8c0.4,1.9,0.7,3.9,1,5.9l1,5.9l1,5.9c0.3,2,0.5,4,0.8,5.9
	c0.5,4,1.1,7.9,1.5,11.9c1.8,15.9,2.8,31.8,3.3,47.8c1,31.9-0.9,63.7-3.2,95.3s-5,62.9-4.7,94.1c0.1,15.6,1,31.1,2.8,46.6
	c1.8,15.4,4.5,30.8,8.2,45.9c3.9,15.1,8.6,29.9,14.1,44.4l2.1,5.4c0.7,1.8,1.5,3.6,2.2,5.4c1.5,3.6,3.1,7.1,4.7,10.6
	C777.2,661.5,777.6,662.3,778,663z"/>
<path class="st1" d="M14.4,105.7h68.8c27.7,0,48.2,6.1,61.5,18.4s20,28.1,20,47.6c0,6.5-0.8,13-2.4,19.4
	c-3.7,13.5-12.1,25.3-23.6,33.4c-6.1,4.3-14.1,7.8-23.9,10.4c-10.9,2.8-22.2,4.1-33.4,3.9H33.7v116.8H14.4V105.7z M33.7,121.7v100.8
	h46.5c21.9,0,38.1-4.6,48.4-13.9c10.3-9.2,15.5-21.5,15.5-36.7c0-14.8-5.1-26.8-15.2-36.2s-25.6-14-46.3-14L33.7,121.7z"/>
<path class="st1" d="M201.5,105.7h64c14.8,0,27.7,1.8,38.6,5.3s19.6,8.4,25.9,14.6c6,5.8,10.7,12.8,13.8,20.5
	c3,7.7,4.5,15.9,4.5,24.2c0,28.7-15.9,49-47.6,60.8c4.4,2.4,8.3,5.6,11.6,9.3c3.6,3.8,7,7.8,10.1,12c2.7,3.7,6.5,9.3,11.5,16.8
	l56.5,86.4h-22.7L324.1,287c-6.2-9.8-11.6-17.6-16.1-23.6c-3.9-5.2-8.1-10.2-12.6-14.8c-3.4-3.7-7.6-6.6-12.3-8.6
	c-4-1.7-8.2-2.8-12.5-3.5c-5.3-0.7-10.7-1-16.1-0.9h-33.8v119.8h-19.3V105.7z M220.8,121.7v97.8h41.5c21.5,0,37.7-4.3,48.6-13
	c11-8.7,16.5-20.7,16.5-36c0-14.9-5.5-26.8-16.5-35.6s-27.4-13.2-49.4-13.2L220.8,121.7z"/>
<polygon class="st1" points="252.2,415.4 252.2,618.3 15.1,618.3 15.1,415.4 33.2,415.4 33.2,602.8 124.6,602.8 124.6,415.4 
	142.7,415.4 142.7,602.8 234.1,602.8 234.1,415.4 "/>
<polygon class="st1" points="455.9,415.4 455.9,618.3 437.6,618.3 437.6,447.8 302.1,617.8 301.7,618.3 288.6,618.3 288.6,415.4 
	306.6,415.4 306.6,587.8 443.5,415.9 443.9,415.4 "/>
<polygon class="st1" points="631.4,357.4 629.2,359.6 584.5,405.3 584.1,405.7 571.6,405.7 572.9,403.7 603.4,358 603.8,357.4 "/>
<polygon class="st1" points="666.9,415.4 666.9,618.3 648.7,618.3 648.7,447.8 513.1,617.8 512.7,618.3 499.6,618.3 499.6,415.4 
	517.7,415.4 517.7,587.8 654.5,415.9 654.9,415.4 "/>
<path class="st1" d="M647.8,165.8c-11.5-19.5-28.1-35.5-47.9-46.4c-20.3-11.3-42.6-17-67.1-17c-7.8,0-15.6,0.6-23.4,1.9
	c-2.8,0.5-5.6,1-8.4,1.7c-6.8,1.6-13.5,3.7-20,6.4l-0.4,0.2c-4.1,1.7-8.1,3.5-11.9,5.5c-10.9,5.7-20.9,12.9-29.8,21.4
	c-37.5,36.9-48.5,92.9-27.9,141.3c6.5,15.3,16,29.2,27.9,40.8c12.1,11.6,26.4,20.8,42,27.1c16.4,6.7,34,10.1,51.8,10
	c17.8,0.1,35.5-3.3,52-10c15.7-6.2,30.1-15.4,42.3-27.1c24.5-23.9,38.3-56.7,38.3-90.9C665.3,207,659.5,185.4,647.8,165.8z
	 M629.8,286.5c-9.5,16.6-23.3,30.4-40,39.8c-17,9.6-35.7,14.5-56.2,14.5c-20.6,0-39.5-4.8-56.6-14.5c-16.8-9.4-30.8-23.1-40.4-39.8
	c-17.3-30.4-19.5-67-6-99.2c11-26.7,32.4-47.7,59.2-58.4c13.9-5.7,28.8-8.6,43.8-8.6c20.5,0,39.2,4.8,56.2,14.5
	c16.7,9.4,30.6,23.2,40,39.9c9.8,17,14.8,36.4,14.6,56C644.4,251,639.5,269.7,629.8,286.5L629.8,286.5z"/>
<path class="st0" d="M629.8,174.7c-9.5-16.7-23.3-30.5-40-39.9c-17-9.7-35.7-14.5-56.2-14.5c-15-0.1-29.9,2.8-43.8,8.6
	c-56.5,23.8-83,88.8-59.3,145.4c1.8,4.2,3.8,8.3,6.1,12.3c9.6,16.7,23.6,30.4,40.4,39.8c17.1,9.6,36,14.5,56.6,14.5
	c20.5,0,39.2-4.8,56.2-14.5c16.7-9.4,30.6-23.1,40-39.8c9.7-16.9,14.6-35.5,14.6-55.9C644.6,211,639.6,191.7,629.8,174.7z
	 M519.8,261.3c0,8.8-7.1,16-15.9,16.1c-8.8,0-16-7.1-16.1-15.9c0-5.9,3.2-11.3,8.4-14.1v-35.2c-7.8-4.2-10.6-13.9-6.4-21.7
	c4.2-7.8,13.9-10.6,21.7-6.4c7.8,4.2,10.6,13.9,6.4,21.7c-1.3,2.5-3.3,4.5-5.7,6v36C516.9,250.6,519.8,255.7,519.8,261.3
	L519.8,261.3z"/>
<circle class="st1" cx="566.1" cy="198.1" r="16"/>
<circle class="st1" cx="566.1" cy="261.3" r="16"/>
<path class="st1" d="M512.2,247.6v-36c7.5-4.6,9.9-14.5,5.3-22c-4.6-7.5-14.5-9.9-22-5.3c-7.5,4.6-9.9,14.5-5.3,22
	c1.5,2.4,3.5,4.4,6,5.7v35.2c-7.8,4.2-10.6,13.9-6.4,21.7c4.2,7.8,13.9,10.6,21.7,6.4c7.8-4.2,10.6-13.9,6.4-21.7
	C516.6,251.1,514.6,249.1,512.2,247.6L512.2,247.6z M510.2,260.1c0,3.3-2.7,6-6,6s-6-2.7-6-6v-58.9c0-3.3,2.7-6,6-6s6,2.7,6,6V260.1
	z"/>
<path class="st0" d="M510.2,201.2v58.9c0,3.3-2.7,6-6,6s-6-2.7-6-6v-58.9c0-3.3,2.7-6,6-6S510.2,197.9,510.2,201.2L510.2,201.2z"/>
<path class="st1" d="M816.5,664.2l-1-0.1h-0.1l-1.8-0.1h-0.2c-3.3-0.2-6.7-0.4-10.1-0.5H803c-2.1-0.1-4.2-0.2-6.3-0.3l-2.3-0.1
	c-2.8-0.1-5.6-0.2-8.3-0.2c-0.3,0-3.1,0-8.1,0.1l-13.2,0.2C640.5,665.2,15,675.5,15,675.5l757.8,14.8c0.8,0,3.3,0,6.6-0.1
	c0,0,0.1,0,0.1,0c-0.7-1.1-1.4-2.2-2.1-3.3c-1-1.7-2.1-3.4-3-5h-0.1c-29.9-0.1-53.8-2.5-53.8-5.3c0-2.7,20.9-4.8,48.1-5.2
	c2.8,0,5.6-0.1,8.5-0.1h5c3.3,0,6.6,0.1,9.7,0.2l4.6,0.1c2.2,0.1,4.5,0.2,6.8,0.3l2.1,0.1l1.3,0.1c1.7,0.1,3.4,0.2,5.1,0.3l0.9,0.1
	l1.3,0.1c12.1,1,19.7,2.4,19.7,4c0,1.8-9.8,3.4-24.7,4.4l-2.5,0.1l-2.6,0.1h-0.4l-1.1,0.1c-1.6,0.1-3.3,0.1-5,0.2h-0.1l-9.2,0.2l0,0
	c1.8,2.8,3.7,5.6,5.6,8.2h0.2c3.5-0.1,6.2-0.1,7-0.2l2.4-0.1c0.9,0,1.8-0.1,2.7-0.1l2.2-0.1c40.9-2.1,82.1-7.7,82.1-13
	C890.3,671.4,853.8,666.5,816.5,664.2z"/>
<path class="st0" d="M929.1,681.6l-0.1,3.2v1.6l-0.2,1.6l-0.4,3.2c-0.2,1.1-0.4,2.2-0.6,3.2l-0.3,1.6l-0.5,1.6
	c-0.3,1.1-0.6,2.1-1,3.2l-1.2,3.2c-0.4,1.1-0.9,2.1-1.5,3.1c-0.5,1-1,2-1.7,3l-1.9,2.9c-0.7,0.9-1.4,1.8-2.1,2.7
	c-2.9,3.4-6.3,6.4-10,9c-7.2,4.8-15.1,8.3-23.5,10.3c-8.2,2-16.6,3-25,2.9c-8.5-0.1-16.9-1.3-25-3.5c-8.2-2.4-15.9-6-23-10.7
	c-7-4.7-13.3-10.3-18.9-16.5c-4.7-5.3-9-11-12.9-17c0,0,0.1,0,0.1,0c-0.7-1.1-1.4-2.2-2.1-3.3c-1-1.7-2.1-3.4-3-5h-0.1
	c-2-3.5-3.8-7-5.6-10.5c2.8,0,5.6-0.1,8.5-0.1h5c1.8,3.3,3.6,6.6,5.6,9.7l0.2,0.3l0.2,0.4c1.8,2.8,3.7,5.6,5.6,8.2
	c1.4,2,3,4,4.5,5.9c0.9,1.2,1.9,2.3,2.9,3.4c4.9,5.5,10.5,10.4,16.6,14.5c6.1,4,12.7,7.1,19.7,9.2c7.1,2,14.4,3,21.7,3
	c7.4,0.1,14.8-0.8,21.9-2.5c7-1.7,13.6-4.6,19.6-8.6c2.8-1.9,5.4-4.2,7.6-6.8c2.1-2.6,3.9-5.4,5.1-8.5l0.9-2.4
	c0.2-0.8,0.5-1.7,0.7-2.5l0.3-1.2l0.2-1.3l0.5-2.6l0.3-2.6l0.2-1.3l0.1-1.3c0-0.9,0.1-1.8,0.1-2.7s0-1.8,0-2.7
	c-0.1-7.5-1.1-14.9-2.9-22.1c-1.9-7.4-4.2-14.7-7.2-21.8c-2.9-7.2-6.2-14.2-9.8-21.1s-7.5-13.7-11.7-20.3
	c-8.4-13.3-17.5-26.1-27.3-38.4c-9.8-12.3-20.2-24.2-31.1-35.7c11.7,10.6,23,21.8,33.7,33.5c2.7,2.9,5.3,5.9,7.9,8.9l3.8,4.5
	c1.3,1.5,2.6,3,3.8,4.6l3.8,4.6l3.7,4.7l1.8,2.4l1.8,2.4l3.5,4.8c4.7,6.5,9.1,13.2,13.2,20c4.1,6.9,7.9,14,11.4,21.3
	c3.5,7.3,6.5,14.9,8.9,22.7c2.5,8,4.1,16.2,4.7,24.5C929,679.5,929,680.5,929.1,681.6z"/>
</svg>
